o Default
v -5.551115123125783e-17 0.987500011920929 -2.220446049250313e-16
v -0.25 1.0625 -2.220446049250313e-16
v -5.551115123125783e-17 1.0850000381469727 -0.22749999165534973
v -0.25 1.1375000476837158 -0.17499999701976776
v 0.25 1.0625 0
v -5.551115123125783e-17 1.0850000381469727 0.22749999165534973
v 0.25 1.1375000476837158 0.17499999701976776
v 0.25 1.3125 0.25
v -5.551115123125783e-17 1.3125 0.32499998807907104
v -0.25 1.3125 0.25
v -5.551115123125783e-17 1.5399999618530273 0.22749999165534973
v -0.25 1.4874999523162842 0.17499999701976776
v 0.25 1.5625 0
v -5.551115123125783e-17 1.6375000476837158 0
v 0.25 1.4874999523162842 0.17499999701976776
v -0.25 1.5625 -5.797216484637602e-9
v -5.551115123125783e-17 1.5400029420852661 -0.22747722268104553
v -0.25 1.4875023365020752 -0.174982488155365
v -0.25 1.3125065565109253 -0.24994999170303345
v -5.551115123125783e-17 1.312508463859558 -0.3249349892139435
v 0.25 1.1375000476837158 -0.17499999701976776
v -0.25 1.1375000476837158 0.17499999701976776
v 0.25 1.3125065565109253 -0.24994999170303345
v 0.25 1.4875023365020752 -0.174982488155365
v 0.375 1.3125 1.6653345369377348e-16
v -0.375 1.3125 0
v 0.25 1.3125 -0.25
v 0.25 0.5625 0.125
v 0.2421875 0.7906249761581421 -0.125
v 0.27656251192092896 0.7734375 0.15625
v 0.25 0.5625 -0.125
v -0.2906250059604645 0.859375 -0.15625
v -0.25 0.5625 -0.125
v -0.23906250298023224 0.7562500238418579 0.140625
v -0.25 0.5625 0.125
v 0.1875 1.125 0.125
v -0.1875 1.125 0.125
v -0.1875 1.125 -0.125
v 0.1875 1.125 -0.125
v -0.25 0.375 0.125
v 0.25 0.375 0.125
v 0.25 0.375 -0.125
v -0.25 0.375 -0.125
v 0.1875 0.25 -0.125
v -0.1875 0.375 -0.125
v 0.1875 0.375 -0.125
v -0.1875 0.25 -0.125
v -0.1875 0.25 0.125
v 0.1875 0.375 0.125
v -0.1875 0.375 0.125
v 0.1875 0.25 0.125
v -0.0625 0.0625 1.1102230246251565e-16
v -5.551115123125783e-17 0.4375 0.0625
v -0.0625 0.4375 1.1102230246251565e-16
v -5.551115123125783e-17 0.0625 0.0625
v 0.0625 0.0625 1.1102230246251565e-16
v -5.551115123125783e-17 0.4375 -0.0625
v 0.0625 0.4375 1.1102230246251565e-16
v -5.551115123125783e-17 0.0625 -0.0625
v -0.1875 0 -0.1875
v 0.1875 0 0.1875
v -0.1875 0 0.1875
v 0.1875 0 -0.1875
v -0.1875 0.0625 0.1875
v 0.1875 0.0625 -0.1875
v -0.1875 0.0625 -0.1875
v 0.1875 0.0625 0.1875
v 0.4330357015132904 0.9419583678245544 0.000010715588359744288
v 0.1875 0.874972403049469 -0.062449999153614044
v 0.4330357015132904 0.9910438060760498 -0.049057140946388245
v 0.1875 0.8125 1.6533641122862264e-9
v 0.75 1.1249723434448242 0.00005000249802833423
v 0.4330357015132904 0.9910438060760498 0.04915713518857956
v 0.4330357015132904 1.0401725769042969 0.000010715588359744288
v 0.1875 0.9375 -5.797216484637602e-9
v 0.1875 0.874972403049469 0.06255000084638596
v -0.4330357015132904 0.9419583678245544 -0.000010715588359744288
v -0.1875 0.874972403049469 0.062449999153614044
v -0.4330357015132904 0.9910438060760498 0.049057140946388245
v -0.1875 0.8125 -1.6533645563754362e-9
v -0.75 1.1249723434448242 -0.00005000249802833423
v -0.4330357015132904 0.9910438060760498 -0.04915713518857956
v -0.4330357015132904 1.0401725769042969 -0.000010715588359744288
v -0.1875 0.9375 5.797216040548392e-9
v -0.1875 0.874972403049469 -0.06255000084638596
v 0.125 1.171875 -0.34375
v -0.125 1.296875 -0.3552083373069763
v 0.125 1.296875 -0.3552083373069763
v -0.125 1.171875 -0.34375
v 0.125 1.359375 -0.3375000059604645
v -0.125 1.484375 -0.25
v 0.125 1.484375 -0.25
v -0.125 1.359375 -0.3375000059604645
v 0.03125 1.4375 -0.28125
v -0.03125 1.5625 -0.21875
v 0.03125 1.5625 -0.21875
v -0.03125 1.4375 -0.28125
vt 0.8571428656578064 0.6000000238418579
vt 0.9523809552192688 0.6000000238418579
vt 0.8571428656578064 0.800000011920929
vt 0.9523809552192688 0.800000011920929
vt 0.2857142984867096 0.6000000238418579
vt 0.380952388048172 0.6000000238418579
vt 0.2857142984867096 0.800000011920929
vt 0.380952388048172 0.800000011920929
vt 0.380952388048172 1
vt 0.2857142984867096 1
vt 0.4761904776096344 0.800000011920929
vt 0.4761904776096344 0.6000000238418579
vt 0.5714285969734192 1
vt 0.4761904776096344 1
vt 0.5714285969734192 0.800000011920929
vt 0.5714285969734192 0.6000000238418579
vt 0.6666666269302368 0.800000011920929
vt 0.6666666269302368 0.6000000238418579
vt 0.6666666269302368 1
vt 0.9523809552192688 1
vt 0.8571428656578064 1
vt 0.761904776096344 0.6000000238418579
vt 0.761904776096344 0.800000011920929
vt 0.190476194024086 0.6000000238418579
vt 0.190476194024086 0.800000011920929
vt 0.761904776096344 1
vt 0.190476194024086 1
vt 0 0.800000011920929
vt 0.095238097012043 0.800000011920929
vt 0 1
vt 0.095238097012043 1
vt 0 0.6000000238418579
vt 0.095238097012043 0.6000000238418579
vt 0.4761904776096344 0.15000000596046448
vt 0.5714285969734192 0.3499999940395355
vt 0.4761904776096344 0.3499999940395355
vt 0.5714285969734192 0.15000000596046448
vt 0.2857142984867096 0.15000000596046448
vt 0.2857142984867096 0.3499999940395355
vt 0.190476194024086 0.15000000596046448
vt 0.190476194024086 0.3499999940395355
vt 0 0.3499999940395355
vt 0 0
vt 0 0.15000000596046448
vt 0.190476194024086 0
vt 0.4761904776096344 0
vt 0.5714285969734192 0
vt 0.2857142984867096 0
vt 0.5714285969734192 0.5
vt 0.7142857313156128 0.6000000238418579
vt 0.7142857313156128 0.5
vt 0.8095237612724304 0.20000000298023224
vt 0.8095237612724304 0.6000000238418579
vt 0.8571428656578064 0.20000000298023224
vt 0.7142857313156128 0.20000000298023224
vt 0.761904776096344 0.20000000298023224
vt 0.9047619104385376 0.6000000238418579
vt 0.9047619104385376 0.20000000298023224
vt 0.7142857313156128 0.44999998807907104
vt 0.5714285969734192 0.44999998807907104
vt 0.7142857313156128 0.15000000596046448
vt 0.8333333730697632 0
vt 0.9047619104385376 0.05000000074505806
vt 0.8333333730697632 0.10000000149011612
vt 0.738095223903656 0
vt 0.738095223903656 0.10000000149011612
vt 0.5714285969734192 0.10000000149011612
vt 0.9047619104385376 0.3499999940395355
vt 1 0.44999998807907104
vt 0.9047619104385376 0.44999998807907104
vt 1 0.3499999940395355
vt 0.9047619104385376 0.5
vt 1 0.6000000238418579
vt 1 0.5
vt 0.7142857313156128 0.10000000149011612
vt 0.738095223903656 0.20000000298023224
vn -0.26582273 -0.88607592 -0.37974694
vn -0.26582283 -0.88607585 -0.37974704
vn 0.26582273 -0.88607592 0.37974694
vn 0.26582283 -0.88607585 0.37974704
vn 0.26582274 -0.37974688 0.88607594
vn 0.26582279 -0.37974693 0.8860759
vn -0.26582279 0.37974693 0.8860759
vn -0.26582274 0.37974688 0.88607594
vn 0.26582291 0.88607579 0.37974712
vn 0.26582283 0.88607585 0.37974704
vn -0.26581981 0.88606722 -0.37976928
vn -0.26582023 0.88606691 -0.37976971
vn -0.26579165 0.37961893 -0.88614009
vn -0.26579173 0.37961901 -0.88614004
vn -0.26579764 -0.37952377 -0.88617906
vn -0.26579759 -0.37952371 -0.8861791
vn 0.26582283 -0.88607585 -0.37974704
vn 0.26582273 -0.88607592 -0.37974694
vn -0.26582283 -0.88607585 0.37974704
vn -0.26582273 -0.88607592 0.37974694
vn 0.26582274 0.37974688 0.88607594
vn 0.26582279 0.37974693 0.8860759
vn 0.26579173 0.37961901 -0.88614004
vn 0.26579165 0.37961893 -0.88614009
vn 0.26579759 -0.37952371 -0.8861791
vn 0.26579764 -0.37952377 -0.88617906
vn 0.26582024 0.88606691 -0.37976971
vn 0.26581981 0.88606723 -0.37976927
vn -0.26582283 0.88607585 0.37974703
vn -0.26582291 0.88607579 0.37974712
vn -0.26582279 -0.37974693 0.8860759
vn -0.26582274 -0.37974688 0.88607594
vn 0.87843812 0.1882368 0.43921906
vn 0.87843811 0.43921905 0.18823686
vn 0.87843598 0.43921799 -0.18824926
vn 0.87841299 0.18818986 -0.43928943
vn 0.87843812 -0.1882368 0.43921906
vn 0.87843811 -0.43921905 0.18823686
vn -0.87843811 -0.43921905 0.18823686
vn -0.87843812 -0.1882368 0.43921906
vn -0.87841299 0.18818986 -0.43928943
vn -0.87843598 0.43921799 -0.18824926
vn -0.87843811 0.43921906 0.18823686
vn -0.87843812 0.1882368 0.43921906
vn -0.87841765 -0.1881396 -0.43930163
vn -0.87843811 -0.43921905 -0.18823686
vn 0.87843811 -0.43921905 -0.18823686
vn 0.87843812 -0.1882368 -0.43921906
vn 0.98629001 -0.10538667 -0.12698689
vn 0.9994141 0.03422651 0
vn 0.05880927 0.00201402 -0.99826721
vn 0 -0.10468478 -0.99450545
vn -0.98423663 -0.12111942 0.12887332
vn -0.99841041 0.05636186 0
vn 0 0.0423349 0.99910348
vn -0.03286322 0.08022884 0.99623458
vn -0.93221033 0.36191697 0
vn -0.96529319 0.14420407 0.21774812
vn 0 0 -1
vn 0.06985289 0.08976422 -0.99351042
vn 0.96937743 0.24557565 0
vn 0.98089005 0.16042593 -0.11008281
vn 0 0 1
vn 1 0 0
vn -1 0 0
vn -0.02757033 -0.07880719 0.99650856
vn 0 -0.14654866 0.98920346
vn -0.70710678 0 0.70710678
vn 0.70710678 0 -0.70710678
vn -0.70710678 0 -0.70710678
vn 0.70710678 0 0.70710678
vn 0 -1 0
vn 0 1 0
vn 0.34930326 -0.66244724 -0.6626846
vn 0.34930326 -0.66244711 -0.66268474
vn 0.3780136 -0.65457393 0.65470504
vn -0.18599586 0.6948929 0.69464336
vn -0.28335763 0.67770432 -0.67854647
vn -0.28335764 0.67770473 -0.67854605
vn 0.37801364 -0.65457399 -0.65470496
vn -0.18568595 0.69437844 -0.69524047
vn -0.28362063 0.67819202 0.67794905
vn -0.28362088 0.67819226 0.67794871
vn 0.34949776 -0.66292571 0.66210332
vn 0.34910897 -0.66255077 0.66268348
vn -0.34930326 -0.66244724 0.6626846
vn -0.34930326 -0.66244711 0.66268474
vn -0.3780136 -0.65457393 -0.65470504
vn 0.18599586 0.6948929 -0.69464336
vn 0.28335763 0.67770432 0.67854647
vn 0.28335764 0.67770473 0.67854605
vn -0.37801364 -0.65457399 0.65470496
vn 0.18568595 0.69437844 0.69524047
vn 0.28362063 0.67819202 -0.67794905
vn 0.28362088 0.67819226 -0.67794871
vn -0.34949776 -0.66292571 -0.66210332
vn -0.34910897 -0.66255077 -0.66268348
vn 0 -0.09128398 -0.9958249
vn 0 0.57346237 -0.8192319
vn 0 0.27260254 -0.96212673
vn 0 0.4472136 -0.89442719
g Scene
usemtl 1
f 1/1/1 2/2/1 3/3/1
f 2/2/2 4/4/2 3/3/2
f 1/5/3 5/6/3 6/7/3
f 5/6/4 7/8/4 6/7/4
f 6/7/5 8/9/5 9/10/5
f 6/7/6 7/8/6 8/9/6
f 10/6/7 11/11/7 12/8/7
f 10/6/8 9/12/8 11/11/8
f 11/11/9 13/13/9 14/14/9
f 11/11/10 15/15/10 13/13/10
f 16/16/11 17/17/11 18/15/11
f 16/16/12 14/18/12 17/17/12
f 18/15/13 17/17/13 19/13/13
f 17/17/14 20/19/14 19/13/14
f 3/3/15 19/20/15 20/21/15
f 3/3/16 4/4/16 19/20/16
f 5/22/17 3/3/17 21/23/17
f 5/22/18 1/1/18 3/3/18
f 2/24/19 6/7/19 22/25/19
f 2/24/20 1/5/20 6/7/20
f 9/12/21 8/16/21 11/11/21
f 8/16/22 15/15/22 11/11/22
f 17/17/23 23/26/23 20/19/23
f 17/17/24 24/23/24 23/26/24
f 21/23/25 3/3/25 23/26/25
f 3/3/26 20/21/26 23/26/26
f 14/18/27 13/22/27 17/17/27
f 13/22/28 24/23/28 17/17/28
f 12/8/29 11/11/29 16/9/29
f 11/11/30 14/14/30 16/9/30
f 22/25/31 6/7/31 10/27/31
f 6/7/32 9/10/32 10/27/32
f 8/28/33 25/29/33 15/30/33
f 25/29/34 13/31/34 15/30/34
f 25/29/35 24/27/35 13/31/35
f 25/29/36 23/25/36 24/27/36
f 7/32/37 25/29/37 8/28/37
f 7/32/38 5/33/38 25/29/38
f 2/33/39 22/24/39 26/29/39
f 22/24/40 10/25/40 26/29/40
f 19/28/41 26/29/41 18/30/41
f 26/29/42 16/31/42 18/30/42
f 26/29/43 12/27/43 16/31/43
f 26/29/44 10/25/44 12/27/44
f 4/32/45 26/29/45 19/28/45
f 4/32/46 2/33/46 26/29/46
f 5/33/47 21/24/47 25/29/47
f 21/24/48 27/25/48 25/29/48
f 28/34/49 29/35/49 30/36/49
f 28/34/50 31/37/50 29/35/50
f 31/38/51 32/36/51 29/39/51
f 31/38/52 33/34/52 32/36/52
f 33/40/53 34/39/53 32/41/53
f 33/40/54 35/38/54 34/39/54
f 34/42/55 36/24/55 37/32/55
f 34/42/56 30/41/56 36/24/56
f 32/41/57 37/5/57 38/24/57
f 32/41/58 34/39/58 37/5/58
f 29/39/59 38/12/59 39/5/59
f 29/39/60 32/36/60 38/12/60
f 30/36/61 39/16/61 36/12/61
f 30/36/62 29/35/62 39/16/62
f 40/43/63 28/40/63 35/44/63
f 40/43/63 41/45/63 28/40/63
f 41/46/64 31/37/64 28/34/64
f 41/46/64 42/47/64 31/37/64
f 42/48/59 33/34/59 31/38/59
f 42/48/59 43/46/59 33/34/59
f 43/45/65 35/38/65 33/40/65
f 43/45/65 40/48/65 35/38/65
f 35/44/66 30/41/66 34/42/66
f 35/44/67 28/40/67 30/41/67
f 44/49/59 45/50/59 46/16/59
f 44/49/59 47/51/59 45/50/59
f 48/49/63 49/50/63 50/16/63
f 48/49/63 51/51/63 49/50/63
f 52/52/68 53/1/68 54/53/68
f 52/52/68 55/54/68 53/1/68
f 56/55/69 57/22/69 58/50/69
f 56/55/69 59/56/69 57/22/69
f 59/56/70 54/53/70 57/22/70
f 59/56/70 52/52/70 54/53/70
f 55/54/71 58/57/71 53/1/71
f 55/54/71 56/58/71 58/57/71
f 60/37/72 61/59/72 62/60/72
f 60/37/72 63/61/72 61/59/72
f 64/37/73 65/59/73 66/60/73
f 64/37/73 67/61/73 65/59/73
f 60/60/65 64/51/65 66/49/65
f 60/60/65 62/59/65 64/51/65
f 62/60/63 67/51/63 64/49/63
f 62/60/63 61/59/63 67/51/63
f 61/60/64 65/51/64 67/49/64
f 61/60/64 63/59/64 65/51/64
f 63/60/59 66/51/59 65/49/59
f 63/60/59 60/59/59 66/51/59
f 68/62/74 69/63/74 70/64/74
f 68/62/75 71/63/75 69/63/75
f 68/65/76 72/63/76 73/66/76
f 73/65/77 72/63/77 74/66/77
f 75/47/78 70/66/78 69/67/78
f 75/47/79 74/65/79 70/66/79
f 72/47/80 68/62/80 70/64/80
f 74/65/81 72/63/81 70/66/81
f 76/47/82 74/66/82 75/67/82
f 76/47/83 73/65/83 74/66/83
f 71/47/84 73/66/84 76/67/84
f 71/47/85 68/65/85 73/66/85
f 77/62/86 78/63/86 79/64/86
f 77/62/87 80/63/87 78/63/87
f 77/65/88 81/63/88 82/66/88
f 82/65/89 81/63/89 83/66/89
f 84/47/90 79/66/90 78/67/90
f 84/47/91 83/65/91 79/66/91
f 81/47/92 77/62/92 79/64/92
f 83/65/93 81/63/93 79/66/93
f 85/47/94 83/66/94 84/67/94
f 85/47/95 82/65/95 83/66/95
f 80/47/96 82/66/96 85/67/96
f 80/47/97 77/65/97 82/66/97
f 86/68/98 87/69/98 88/70/98
f 86/68/98 89/71/98 87/69/98
f 90/72/99 91/73/99 92/57/99
f 90/72/99 93/74/99 91/73/99
f 88/70/100 93/74/100 90/72/100
f 88/70/100 87/69/100 93/74/100
f 94/75/101 95/76/101 96/55/101
f 94/75/101 97/66/101 95/76/101
