# Blender 4.0.2
# www.blender.org
mtllib Poly-FPModel.mtl
o Poly-FPView
v 0.000000 2.100000 -0.700000
v 0.000000 2.300000 -0.500000
v 0.494975 2.100000 -0.494975
v 0.353553 2.300000 -0.353553
v 0.700000 2.100000 0.000000
v 0.500000 2.300000 0.000000
v 0.494975 2.100000 0.494975
v 0.353553 2.300000 0.353553
v 0.000000 2.100000 0.700000
v 0.000000 2.300000 0.500000
v -0.494975 2.100000 0.494975
v -0.353553 2.300000 0.353553
v -0.700000 2.100000 0.000000
v -0.500000 2.300000 0.000000
v -0.494975 2.100000 -0.494975
v -0.353553 2.300000 -0.353553
v -0.000000 1.900000 -0.490000
v 0.346482 1.900000 -0.346482
v 0.490000 1.900000 0.000000
v 0.346482 1.900000 0.346482
v -0.000000 1.900000 0.490000
v -0.346482 1.900000 0.346482
v -0.490000 1.900000 0.000000
v -0.346482 1.900000 -0.346482
v -0.000000 1.100000 -0.637000
v 0.450427 1.100000 -0.450427
v 0.637000 1.100000 0.000000
v 0.450427 1.100000 0.450427
v -0.000000 1.100000 0.637000
v -0.450427 1.100000 0.450427
v -0.637000 1.100000 0.000000
v -0.450427 1.100000 -0.450427
v -0.000000 0.600000 -0.828100
v 0.585555 0.600000 -0.585555
v 0.828100 0.600000 0.000000
v 0.585555 0.600000 0.585555
v -0.000000 0.600000 0.828100
v -0.585555 0.600000 0.585555
v -0.828100 0.600000 0.000000
v -0.585555 0.600000 -0.585555
v -0.000000 0.500000 -0.927472
v 0.655822 0.500000 -0.655822
v 0.927472 0.500000 0.000000
v 0.655822 0.500000 0.655822
v -0.000000 0.500000 0.927472
v -0.655822 0.500000 0.655822
v -0.927472 0.500000 0.000000
v -0.655822 0.500000 -0.655822
v -0.000000 0.300000 -1.020219
v 0.721404 0.300000 -0.721404
v 1.020219 0.300000 0.000000
v 0.721404 0.300000 0.721404
v -0.000000 0.300000 1.020219
v -0.721404 0.300000 0.721404
v -1.020219 0.300000 0.000000
v -0.721404 0.300000 -0.721404
v 0.149072 2.468524 0.458787
v 0.482400 2.468524 0.000000
v -0.390270 2.468524 0.283547
v -0.390270 2.468524 -0.283547
v 0.149072 2.468524 -0.458787
v 0.780542 2.950928 0.000000
v 0.241200 2.950928 0.742333
v -0.631470 2.950928 0.458787
v -0.631470 2.950928 -0.458787
v 0.241200 2.950928 -0.742333
v 0.631470 3.249072 0.458787
v -0.241200 3.249072 0.742333
v -0.780542 3.249072 0.000000
v -0.241200 3.249072 -0.742333
v 0.631470 3.249072 -0.458787
v 0.390270 3.731477 0.283547
v -0.149072 3.731477 0.458787
v -0.482400 3.731477 0.000000
v -0.149072 3.731477 -0.458787
v 0.390270 3.731477 -0.283547
v 0.068442 -0.204948 0.208786
v 0.520623 -0.015365 0.215426
v -0.179180 -0.204948 0.129037
v -0.179180 -0.204948 -0.129037
v 0.068442 -0.204948 -0.208786
v 0.657507 0.168376 0.215427
v -0.003520 0.168375 0.686397
v -0.659684 0.168377 0.208787
v -0.404183 0.168376 -0.557359
v 0.409885 0.168376 -0.553253
v 0.589066 0.281935 0.424215
v -0.225002 0.281935 0.686398
v -0.728126 0.281936 0.000000
v -0.225002 0.281935 -0.686398
v 0.589066 0.281935 -0.424215
v 0.293442 0.772434 0.477608
v -0.367585 0.772434 0.424213
v -0.520623 0.772434 -0.215426
v 0.045818 0.772434 -0.557357
v 0.548942 0.772433 -0.129038
v 0.179180 0.962016 -0.129037
v 0.358362 0.859575 -0.258075
v 0.293442 0.772434 -0.477608
v -0.068442 0.962017 -0.208786
v -0.136884 0.859576 -0.417573
v -0.367585 0.772434 -0.424213
v -0.221480 0.962017 0.000000
v -0.442960 0.859576 0.000000
v -0.520623 0.772434 0.215426
v -0.068442 0.962017 0.208786
v -0.136884 0.859576 0.417573
v 0.045818 0.772434 0.557357
v 0.179180 0.962016 0.129037
v 0.358362 0.859575 0.258075
v 0.548942 0.772433 0.129038
v 0.659684 0.588692 -0.208787
v 0.579845 0.492093 -0.417575
v 0.404183 0.588693 -0.557359
v 0.003520 0.588693 -0.686397
v -0.221482 0.492094 -0.675653
v -0.409885 0.588693 -0.553253
v -0.657507 0.588693 -0.215427
v -0.716727 0.492093 0.000000
v -0.657507 0.588693 0.215427
v -0.409885 0.588693 0.553253
v -0.221482 0.492094 0.675653
v 0.003520 0.588693 0.686397
v 0.404183 0.588693 0.557359
v 0.579845 0.492093 0.417575
v 0.659684 0.588692 0.208787
v 0.225002 0.475134 -0.686398
v 0.221482 0.264975 -0.675653
v -0.003520 0.168375 -0.686397
v -0.589066 0.475134 -0.424215
v -0.579845 0.264975 -0.417575
v -0.659684 0.168377 -0.208787
v -0.589066 0.475134 0.424215
v -0.579845 0.264975 0.417575
v -0.404183 0.168376 0.557359
v 0.225002 0.475134 0.686398
v 0.221482 0.264975 0.675652
v 0.409885 0.168376 0.553253
v 0.728126 0.475133 0.000000
v 0.716727 0.264975 0.000000
v 0.657507 0.168376 -0.215427
v 0.367585 -0.015366 -0.424213
v 0.136884 -0.102508 -0.417573
v -0.045818 -0.015366 -0.557357
v -0.293442 -0.015366 -0.477608
v -0.358362 -0.102507 -0.258075
v -0.548942 -0.015364 -0.129038
v -0.548942 -0.015364 0.129038
v -0.358362 -0.102507 0.258075
v -0.293442 -0.015366 0.477608
v 0.520623 -0.015365 -0.215426
v 0.442960 -0.102507 0.000000
v 0.221480 -0.204948 0.000000
v -0.045818 -0.015366 0.557357
v 0.136884 -0.102508 0.417573
v 0.367585 -0.015366 0.424213
vn 0.2811 0.6786 -0.6786
vn 0.6786 0.6786 -0.2811
vn 0.6786 0.6786 0.2811
vn 0.2811 0.6786 0.6786
vn -0.2811 0.6786 0.6786
vn -0.6786 0.6786 0.2811
vn -0.0000 1.0000 -0.0000
vn -0.6786 0.6786 -0.2811
vn -0.2811 0.6786 -0.6786
vn -0.6631 -0.6963 0.2747
vn 0.3773 0.1674 0.9108
vn 0.2747 -0.6963 0.6631
vn -0.6631 -0.6963 -0.2747
vn 0.6631 -0.6963 -0.2747
vn -0.2747 -0.6963 0.6631
vn -0.2747 -0.6963 -0.6631
vn 0.2747 -0.6963 -0.6631
vn 0.6631 -0.6963 0.2747
vn -0.3608 0.3330 -0.8712
vn 0.9108 0.1674 -0.3773
vn -0.9108 0.1674 -0.3773
vn -0.3773 0.1674 0.9108
vn 0.9108 0.1674 0.3773
vn 0.3773 0.1674 -0.9108
vn -0.3773 0.1674 -0.9108
vn -0.9108 0.1674 0.3773
vn -0.2819 0.6763 0.6806
vn -0.8712 0.3330 0.3608
vn 0.3608 0.3330 0.8712
vn 0.8712 0.3330 -0.3608
vn -0.8712 0.3330 -0.3608
vn -0.3608 0.3330 0.8712
vn 0.8712 0.3330 0.3608
vn 0.3608 0.3330 -0.8712
vn -0.8492 0.3938 -0.3518
vn 0.6806 0.6763 0.2819
vn 0.2819 0.6763 -0.6806
vn -0.2819 0.6763 -0.6806
vn -0.6806 0.6763 0.2819
vn 0.2819 0.6763 0.6806
vn 0.6806 0.6763 -0.2819
vn -0.6806 0.6763 -0.2819
vn -0.0000 -1.0000 -0.0000
vn -0.3518 0.3938 0.8492
vn 0.8492 0.3938 0.3518
vn 0.3518 0.3938 -0.8492
vn -0.3518 0.3938 -0.8492
vn -0.8492 0.3938 0.3518
vn 0.3518 0.3938 0.8492
vn 0.8492 0.3938 -0.3518
vn 0.7236 -0.4472 0.5257
vn -0.2764 -0.4472 0.8507
vn -0.8944 -0.4472 -0.0000
vn -0.2764 -0.4472 -0.8507
vn 0.7236 -0.4472 -0.5257
vn 0.2764 0.4472 0.8507
vn -0.7236 0.4472 0.5257
vn -0.7236 0.4472 -0.5257
vn 0.2764 0.4472 -0.8507
vn 0.8944 0.4472 -0.0000
vn 0.6913 -0.5150 0.5067
vn -0.2631 -0.5132 0.8170
vn -0.8565 -0.5162 -0.0000
vn -0.2631 -0.5132 -0.8170
vn 0.6913 -0.5150 -0.5067
vn 0.2631 0.5132 0.8170
vn -0.6913 0.5150 0.5067
vn -0.6913 0.5150 -0.5067
vn 0.2631 0.5132 -0.8170
vn 0.8565 0.5162 -0.0000
vn -0.1408 -0.8884 0.4370
vn 0.3689 -0.8893 0.2704
vn 0.2465 -0.5943 0.7655
vn 0.8019 -0.5974 -0.0000
vn 0.3689 -0.8893 -0.2704
vn -0.4562 -0.8899 -0.0000
vn -0.6475 -0.5962 0.4746
vn -0.1408 -0.8884 -0.4370
vn -0.6475 -0.5962 -0.4746
vn 0.2465 -0.5943 -0.7655
vn 0.9502 -0.0000 0.3115
vn 0.9502 -0.0000 -0.3115
vn -0.0000 -0.0000 1.0000
vn 0.5844 -0.0000 0.8115
vn -0.9502 -0.0000 0.3115
vn -0.5844 -0.0000 0.8115
vn -0.5844 -0.0000 -0.8115
vn -0.9502 -0.0000 -0.3115
vn 0.5844 -0.0000 -0.8115
vn -0.0000 -0.0000 -1.0000
vn 0.6475 0.5962 0.4746
vn -0.2465 0.5943 0.7655
vn -0.8019 0.5974 -0.0000
vn -0.2465 0.5943 -0.7655
vn 0.6475 0.5962 -0.4746
vn 0.1408 0.8884 0.4370
vn 0.4562 0.8899 -0.0000
vn -0.3689 0.8893 0.2704
vn -0.3689 0.8893 -0.2704
vn 0.1408 0.8884 -0.4370
vt 1.000000 0.500000
vt 1.000000 1.000000
vt 0.875000 1.000000
vt 0.875000 0.500000
vt 0.750000 1.000000
vt 0.750000 0.500000
vt 0.625000 1.000000
vt 0.625000 0.500000
vt 0.500000 1.000000
vt 0.500000 0.500000
vt 0.375000 1.000000
vt 0.375000 0.500000
vt 0.250000 1.000000
vt 0.250000 0.500000
vt 0.419706 0.419706
vt 0.250000 0.490000
vt 0.080294 0.419706
vt 0.010000 0.250000
vt 0.080294 0.080294
vt 0.250000 0.010000
vt 0.419706 0.080294
vt 0.490000 0.250000
vt 0.125000 1.000000
vt 0.125000 0.500000
vt 0.000000 1.000000
vt 0.000000 0.500000
vt 0.750000 0.490000
vt 0.919706 0.419706
vt 0.990000 0.250000
vt 0.919706 0.080294
vt 0.750000 0.010000
vt 0.580294 0.080294
vt 0.510000 0.250000
vt 0.580294 0.419706
vt 0.181819 0.000000
vt 0.909091 0.000000
vt 0.727273 0.000000
vt 0.545455 0.000000
vt 0.363637 0.000000
vt 0.272728 0.157461
vt 0.090910 0.157461
vt 1.000000 0.157461
vt 0.818182 0.157461
vt 0.636364 0.157461
vt 0.454546 0.157461
vt 0.181819 0.314921
vt 0.909091 0.314921
vt 0.000000 0.314921
vt 0.727273 0.314921
vt 0.545455 0.314921
vt 0.363637 0.314921
vt 0.272728 0.472382
vt 0.454546 0.472382
vt 0.636364 0.472382
vt 0.818182 0.472382
vt 0.090910 0.472382
vt 0.136365 0.078731
vt 0.954545 0.078731
vt 0.227273 0.078731
vt 0.318182 0.078731
vt 0.181819 0.157461
vt 0.363637 0.157461
vt 0.500000 0.078731
vt 0.409092 0.078731
vt 0.863636 0.078731
vt 0.772727 0.078731
vt 0.909091 0.157461
vt 0.681818 0.078731
vt 0.590909 0.078731
vt 0.727273 0.157461
vt 0.545455 0.157461
vt 0.318182 0.236191
vt 0.409092 0.236191
vt 0.136365 0.236191
vt 0.227273 0.236191
vt 0.863636 0.236191
vt 0.045455 0.236191
vt 0.954545 0.236191
vt 0.681818 0.236191
vt 0.772727 0.236191
vt 0.500000 0.236191
vt 0.590909 0.236191
vt 0.272728 0.314921
vt 0.090910 0.314921
vt 0.818182 0.314921
vt 0.636364 0.314921
vt 0.454546 0.314921
vt 0.227273 0.393651
vt 0.136365 0.393651
vt 0.409092 0.393651
vt 0.318182 0.393651
vt 0.045455 0.393651
vt 0.863636 0.393651
vt 0.772727 0.393651
vt 0.681818 0.393651
vt 0.590909 0.393651
vt 0.500000 0.393651
s 0
f 1/1/1 2/2/1 4/3/1 3/4/1
f 3/4/2 4/3/2 6/5/2 5/6/2
f 5/6/3 6/5/3 8/7/3 7/8/3
f 7/8/4 8/7/4 10/9/4 9/10/4
f 9/10/5 10/9/5 12/11/5 11/12/5
f 11/12/6 12/11/6 14/13/6 13/14/6
f 4/15/7 2/16/7 16/17/7 14/18/7 12/19/7 10/20/7 8/21/7 6/22/7
f 13/14/8 14/13/8 16/23/8 15/24/8
f 15/24/9 16/23/9 2/25/9 1/26/9
f 11/12/10 13/14/10 23/14/10 22/12/10
f 20/8/11 21/10/11 29/10/11 28/8/11
f 7/8/12 9/10/12 21/10/12 20/8/12
f 13/14/13 15/24/13 24/24/13 23/14/13
f 3/4/14 5/6/14 19/6/14 18/4/14
f 9/10/15 11/12/15 22/12/15 21/10/15
f 15/24/16 1/26/16 17/26/16 24/24/16
f 1/1/17 3/4/17 18/4/17 17/1/17
f 5/6/18 7/8/18 20/8/18 19/6/18
f 32/24/19 25/26/19 33/26/19 40/24/19
f 18/4/20 19/6/20 27/6/20 26/4/20
f 23/14/21 24/24/21 32/24/21 31/14/21
f 21/10/22 22/12/22 30/12/22 29/10/22
f 19/6/23 20/8/23 28/8/23 27/6/23
f 17/1/24 18/4/24 26/4/24 25/1/24
f 24/24/25 17/26/25 25/26/25 32/24/25
f 22/12/26 23/14/26 31/14/26 30/12/26
f 37/10/27 38/12/27 46/12/27 45/10/27
f 30/12/28 31/14/28 39/14/28 38/12/28
f 28/8/29 29/10/29 37/10/29 36/8/29
f 26/4/30 27/6/30 35/6/30 34/4/30
f 31/14/31 32/24/31 40/24/31 39/14/31
f 29/10/32 30/12/32 38/12/32 37/10/32
f 27/6/33 28/8/33 36/8/33 35/6/33
f 25/1/34 26/4/34 34/4/34 33/1/34
f 47/14/35 48/24/35 56/24/35 55/14/35
f 35/6/36 36/8/36 44/8/36 43/6/36
f 33/1/37 34/4/37 42/4/37 41/1/37
f 40/24/38 33/26/38 41/26/38 48/24/38
f 38/12/39 39/14/39 47/14/39 46/12/39
f 36/8/40 37/10/40 45/10/40 44/8/40
f 34/4/41 35/6/41 43/6/41 42/4/41
f 39/14/42 40/24/42 48/24/42 47/14/42
f 49/27/43 50/28/43 51/29/43 52/30/43 53/31/43 54/32/43 55/33/43 56/34/43
f 45/10/44 46/12/44 54/12/44 53/10/44
f 43/6/45 44/8/45 52/8/45 51/6/45
f 41/1/46 42/4/46 50/4/46 49/1/46
f 48/24/47 41/26/47 49/26/47 56/24/47
f 46/12/48 47/14/48 55/14/48 54/12/48
f 44/8/49 45/10/49 53/10/49 52/8/49
f 42/4/50 43/6/50 51/6/50 50/4/50
f 57/35/43 59/36/43 60/37/43 61/38/43 58/39/43
f 57/40/51 58/40/51 62/40/51 67/40/51 63/40/51
f 57/41/52 63/41/52 68/41/52 64/42/52 59/42/52
f 59/43/53 64/43/53 69/43/53 65/43/53 60/43/53
f 60/44/54 65/44/54 70/44/54 66/44/54 61/44/54
f 58/45/55 61/45/55 66/45/55 71/45/55 62/45/55
f 63/46/56 67/46/56 72/46/56 73/46/56 68/46/56
f 64/47/57 68/48/57 73/48/57 74/47/57 69/47/57
f 65/49/58 69/49/58 74/49/58 75/49/58 70/49/58
f 66/50/59 70/50/59 75/50/59 76/50/59 71/50/59
f 62/51/60 71/51/60 76/51/60 72/51/60 67/51/60
f 72/52/7 76/53/7 75/54/7 74/55/7 73/56/7
f 77/35/43 79/36/43 80/37/43 81/38/43 153/39/43
f 78/40/61 82/40/61 87/40/61 138/40/61 156/40/61
f 83/41/62 88/41/62 135/42/62 150/42/62 154/41/62
f 84/43/63 89/43/63 132/43/63 147/43/63 148/43/63
f 85/44/64 90/44/64 129/44/64 144/44/64 145/44/64
f 86/45/65 91/45/65 141/45/65 151/45/65 142/45/65
f 92/46/66 108/46/66 123/46/66 136/46/66 124/46/66
f 93/48/67 105/47/67 120/47/67 133/47/67 121/48/67
f 94/49/68 102/49/68 117/49/68 130/49/68 118/49/68
f 95/50/69 99/50/69 114/50/69 127/50/69 115/50/69
f 96/51/70 111/51/70 126/51/70 139/51/70 112/51/70
f 97/53/7 100/54/7 103/55/7 106/56/7 109/52/7
f 77/57/71 155/57/71 154/57/71 150/58/71 149/58/71 79/58/71
f 77/59/72 153/60/72 152/60/72 78/60/72 156/59/72 155/59/72
f 83/61/73 154/61/73 155/61/73 156/61/73 138/61/73 137/61/73
f 78/62/74 152/62/74 151/62/74 141/62/74 140/62/74 82/62/74
f 81/63/75 143/63/75 142/63/75 151/64/75 152/64/75 153/64/75
f 79/65/76 149/65/76 148/65/76 147/66/76 146/66/76 80/66/76
f 84/67/77 148/67/77 149/67/77 150/67/77 135/67/77 134/67/77
f 80/68/78 146/68/78 145/68/78 144/69/78 143/69/78 81/69/78
f 85/70/79 145/70/79 146/70/79 147/70/79 132/70/79 131/70/79
f 86/71/80 142/71/80 143/71/80 144/71/80 129/71/80 128/71/80
f 82/72/81 140/72/81 139/72/81 126/72/81 125/72/81 87/72/81
f 91/73/82 113/73/82 112/73/82 139/73/82 140/73/82 141/73/82
f 83/74/83 137/74/83 136/74/83 123/74/83 122/74/83 88/74/83
f 87/75/84 125/75/84 124/75/84 136/75/84 137/75/84 138/75/84
f 84/76/85 134/76/85 133/76/85 120/76/85 119/76/85 89/76/85
f 88/77/86 122/77/86 121/77/86 133/78/86 134/78/86 135/78/86
f 85/79/87 131/79/87 130/79/87 117/79/87 116/79/87 90/79/87
f 89/80/88 119/80/88 118/80/88 130/80/88 131/80/88 132/80/88
f 86/81/89 128/81/89 127/81/89 114/81/89 113/81/89 91/81/89
f 90/82/90 116/82/90 115/82/90 127/82/90 128/82/90 129/82/90
f 92/83/91 124/83/91 125/83/91 126/83/91 111/83/91 110/83/91
f 93/84/92 121/84/92 122/84/92 123/84/92 108/84/92 107/84/92
f 94/85/93 118/85/93 119/85/93 120/85/93 105/85/93 104/85/93
f 95/86/94 115/86/94 116/86/94 117/86/94 102/86/94 101/86/94
f 96/87/95 112/87/95 113/87/95 114/87/95 99/87/95 98/87/95
f 92/88/96 110/88/96 109/88/96 106/89/96 107/89/96 108/89/96
f 96/90/97 98/90/97 97/90/97 109/91/97 110/91/97 111/91/97
f 93/92/98 107/92/98 106/92/98 103/93/98 104/93/98 105/93/98
f 94/94/99 104/94/99 103/94/99 100/95/99 101/95/99 102/95/99
f 95/96/100 101/96/100 100/96/100 97/97/100 98/97/100 99/97/100
