o Default
v 0 0.12495218962430954 -0.06245000287890434
v 0 0.125 0.062499988824129105
v -0.0625 0.12496470659971237 0.000049997499445453286
v 0.0625 0.125 -1.0797216454250247e-8
v 0 0.28125 0.15625
v 0.125 0.46875 0
v 0 0.46875 0.125
v 0.15625 0.28125 0
v 0.125 0.1875 2.7755575615628914e-17
v 0 0.28125 -0.15625
v 0 0.1875 -0.125
v -0.125 0.46875 -2.7755575615628914e-17
v 0 0.46875 -0.125
v -0.15625 0.28125 -2.7755575615628914e-17
v -0.125 0.1875 0
v 0 0.1875 0.125
v 0 0.53125 -0.3124999701976776
v 0 0.40625 -0.125
v -0.15625 0.53125 -0.21875
v 0.1875 0.53125 -0.25
v 0 0.53125 0.3125
v 0 0.40625 0.125
v 0.1875 0.53125 0.25
v -0.15625 0.53125 0.21875
v 0.0625 0.40625 0
v 0.25 0.53125 0
v -0.0625 0.40625 0
v -0.25 0.53125 0
v 0.1875 0.71875 -0.1875
v 0 0.78125 -0.15625
v -0.125 0.71875 -0.1875
v 0.1875 0.71875 0.1875
v 0 0.78125 0.15625
v -0.125 0.71875 0.1875
v 0.25 0.71875 -5.3986082271251234e-9
v -0.0625 0.78125 -5.3986082271251234e-9
v -0.1875 0.71875 -5.3986082271251234e-9
v -1.1214264911904728e-16 0.71875 0.1562500298023224
v 0.03125 0.65625 0.1562500298023224
v -1.676538003503051e-16 0.84375 0.3750000298023224
v -1.1214264911904728e-16 0.59375 0.1562500298023224
v 0.0625 0.65625 0.1562500298023224
v 2.7755575615628914e-17 0.71875 -0.1562499701976776
v 0.09375 0.65625 -0.1562499701976776
v 2.7755575615628914e-17 0.78125 -0.4375
v 2.7755575615628914e-17 0.59375 -0.1562499701976776
v 0.0625 0.65625 -0.1562499701976776
v -0.03125 0.1875 0.0625
v -0.03125 0.125 0.15625
v -0.03125 0.21875 0.0625
v -0.03125 0.09375 0.125
v -4.440892098500626e-16 -4.102562733976356e-11 0.15625
v -4.440892098500626e-16 0.125 0.15625
v -4.440892098500626e-16 0.21875 0.0625
v -4.440892098500626e-16 0.09375 0.125
v -4.440892098500626e-16 0.1875 0.0625
v 0.03125 0.1875 -0.0625000074505806
v 0.03125 0.125 -0.1562499850988388
v 0.03125 0.21875 -0.0625000074505806
v 0.03125 0.09375 -0.1249999925494194
v -4.440892098500626e-16 -4.102562733976356e-11 -0.1562499850988388
v -4.440892098500626e-16 0.125 -0.1562499850988388
v -4.440892098500626e-16 0.21875 -0.0625000074505806
v -4.440892098500626e-16 0.09375 -0.1249999925494194
v -4.440892098500626e-16 0.1875 -0.0625000074505806
v 0.03750002384185791 0.006203179247677326 -0.12496250122785568
v 0.03750002384185791 0.006203179247677326 -0.18746249377727509
v 0.00625002384185791 0.03745317831635475 -0.15621249377727509
v -0.11874997615814209 0.006203179247677326 -0.15621249377727509
v -0.11874997615814209 0.006203179247677326 0.15628750622272491
v 0.00625002384185791 0.03745317831635475 0.15628750622272491
v 0.03750002384185791 0.006203179247677326 0.12503750622272491
v 0.03750002384185791 0.006203179247677326 0.18753750622272491
v -0.02499997615814209 0.19370317459106445 0.21878750622272491
v -0.05624997615814209 0.25620317459106445 0.3125374913215637
v -0.05624997615814209 0.25620317459106445 0.18753750622272491
v -0.02499997615814209 0.19370317459106445 0.2812874913215637
v 0.03750002384185791 0.19370317459106445 0.21878750622272491
v 0.06875002384185791 0.25620317459106445 0.18753750622272491
v 0.03750002384185791 0.19367383420467377 0.2813374996185303
v 0.06875002384185791 0.25620317459106445 0.3125374913215637
v -0.02499997615814209 0.22495317459106445 0.2812874913215637
v 0.02187502384185791 0.31870317459106445 0.2656624913215637
v -0.00937497615814209 0.31870317459106445 0.2656624913215637
v 0.03750002384185791 0.22495317459106445 0.2812874913215637
v 0.02187502384185791 0.31870317459106445 0.20316250622272491
v 0.03750002384185791 0.22495317459106445 0.21878750622272491
v -0.02499997615814209 0.22495317459106445 0.21878750622272491
v -0.00937497615814209 0.31870317459106445 0.20316250622272491
v 0.00625002384185791 0.41245317459106445 0.09378749877214432
v 0.02500000037252903 0.19370317459106445 -0.21871249377727509
v 0.05624999850988388 0.25620317459106445 -0.3124625086784363
v 0.05624999850988388 0.25620317459106445 -0.18746249377727509
v 0.02500000037252903 0.19370317459106445 -0.2812125086784363
v -0.03749999403953552 0.19370317459106445 -0.21871249377727509
v -0.06874999403953552 0.25620317459106445 -0.18746249377727509
v -0.037499964237213135 0.19367383420467377 -0.28126251697540283
v -0.06874996423721313 0.25620317459106445 -0.3124625086784363
v 0.02499997615814209 0.22495317459106445 -0.2812125086784363
v -0.02187502384185791 0.31870317459106445 -0.2655875086784363
v 0.00937497615814209 0.31870317459106445 -0.2655875086784363
v -0.03750002384185791 0.22495317459106445 -0.2812125086784363
v -0.02187497168779373 0.31870317459106445 -0.20308749377727509
v -0.037499964237213135 0.22495317459106445 -0.21871249377727509
v 0.02500000037252903 0.22495317459106445 -0.21871249377727509
v 0.00937500037252903 0.31870317459106445 -0.20308749377727509
v -0.0062499940395355225 0.41245317459106445 -0.09371250122785568
vt 0.0625 0.8571428656578064
vt 0.125 0.9285714030265808
vt 0.0625 0.9285714030265808
vt 0.125 0.8571428656578064
vt 0 0.7857142686843872
vt 0.1875 1
vt 0 1
vt 0.1875 0.7857142686843872
vt 0 0.6428571343421936
vt 0.1875 0.6428571343421936
vt 0.0625 0.5
vt 0.125 0.5
vt 1 0.3571428656578064
vt 0.75 0.6428571343421936
vt 0.75 0.3571428656578064
vt 1 0.6428571343421936
vt 0.25 0.6428571343421936
vt 0 0.3571428656578064
vt 0.25 0.3571428656578064
vt 0.25 0.7142857313156128
vt 0.5 1
vt 0.25 1
vt 0.5 0.7142857313156128
vt 0.75 0.4285714328289032
vt 0.5 0.4285714328289032
vt 0.75 0.7142857313156128
vt 0.25 0.4285714328289032
vt 0.75 1
vt 1 0.1428571492433548
vt 0.75 0.1428571492433548
vt 0.25 0.1428571492433548
vt 0 0.1428571492433548
vt 1 1
vt 0 0.8571428656578064
vt 0.25 0.8571428656578064
vt 1 0.8571428656578064
vt 0.75 0.8571428656578064
vt 0.75 0.2142857164144516
vt 0.5 0.2142857164144516
vt 0.25 0
vt 0 0
vt 0.25 0.2142857164144516
vt 0.75 0
vt 1 0
vt 0.3125 0
vt 0.3125 0.0714285746216774
vt 0.6875 0.0714285746216774
vt 0.3125 0.1428571492433548
vt 0 0.9285714030265808
vt 0.25 0.9285714030265808
vt 0.375 0.8571428656578064
vt 0.375 0.9285714030265808
vt 0.125 1
vn 0.00018236 -0.99999991 0.00038264
vn 0.00038264 -0.99999985 0.00038264
vn 0.70224688 0.11704115 0.70224688
vn 0.6882472 -0.22941573 -0.6882472
vn -0.70224688 0.11704115 -0.70224688
vn -0.6882472 -0.22941573 0.6882472
vn -0.57734354 -0.57736373 -0.57734354
vn -0.57734359 -0.57747925 -0.57722794
vn -0.70224688 0.11704115 0.70224688
vn 0.70224688 0.11704115 -0.70224688
vn 0.57735023 -0.57735034 0.57735023
vn 0.57735023 -0.57735033 0.57735024
vn 0.5773503 -0.5773502 -0.5773503
vn 0.57733002 -0.57737049 -0.5773503
vn -0.6882472 -0.22941573 -0.6882472
vn -0.57761275 -0.57682495 0.57761275
vn -0.57682455 -0.577613 0.5776129
vn 0.6882472 -0.22941573 0.6882472
vn -0.31578941 -0.78947366 -0.52631586
vn 0.18181812 -0.81818179 -0.54545461
vn 0.18181818 -0.81818182 0.54545455
vn -0.31578947 -0.78947368 0.52631579
vn 0.43643578 -0.87287156 0.21821789
vn 0.54944226 -0.82416338 0.13736056
vn -0.53966034 -0.80949051 -0.231283
vn -0.5069794 -0.82384153 -0.2534897
vn -0.53966034 -0.80949051 0.231283
vn -0.5069794 -0.82384153 0.2534897
vn 0.43643578 -0.87287156 -0.21821789
vn 0.54944226 -0.82416338 -0.13736056
vn 0.30151134 0.30151134 -0.90453403
vn 0.03531123 0.52966841 -0.84746946
vn -0.05292561 0.52925612 -0.8468098
vn -0.50155039 0.22291129 -0.83591732
vn 0.03531123 0.52966841 0.84746946
vn 0.30151134 0.30151134 0.90453403
vn -0.50155039 0.22291129 0.83591732
vn -0.05292561 0.52925612 0.8468098
vn 0.19551547 0.97757736 0.07820619
vn 0.2996257 0.94881472 -0.09987524
vn 0.2996257 0.94881472 0.09987523
vn 0.19551547 0.97757736 -0.07820619
vn 0.96698756 0.0805823 0.24174689
vn 0.9486833 1e-8 0.31622776
vn 0.9486833 -1e-8 -0.31622777
vn 0.96698756 0.0805823 -0.24174689
vn -0.89789516 0.21378456 -0.38481221
vn -0.90453403 0.30151134 -0.30151135
vn -0.44232587 0.88465174 0.14744195
vn -0.40824829 0.89814624 0.16329931
vn -0.90453403 0.30151135 0.30151134
vn -0.89789516 0.21378456 0.38481221
vn -0.40824829 0.89814624 -0.16329932
vn -0.44232587 0.88465174 -0.14744196
vn -0.86657824 -0.43328912 0.24759378
vn -0.79643217 0.39821609 -0.4551041
vn 0.65561007 0.65561007 -0.37463432
vn 0.54997194 -0.54997194 0.62853936
vn 0.54545455 0.81818182 0.18181816
vn 0.48507126 -0.72760689 -0.48507121
vn -0.63960216 0.63960216 0.4264014
vn -0.69853547 -0.69853547 -0.15523009
vn -1 0 0
vn -0.94280904 -0.23570226 0.23570226
vn 0 0 1
vn 0 0.70710678 0.70710678
vn 0 -0.31622777 -0.9486833
vn 0 -0.5547002 -0.83205029
vn 1 0 0
vn 0.94280903 -0.23570226 -0.23570231
vn 0 0 -1
vn 0 0.7071067 -0.70710687
vn 0 -0.3162277 0.94868332
vn 0 -0.5547001 0.83205036
vn 0.70710677 0.70710679 0
vn 0 -1 0
vn -0.15430335 0.61721341 -0.77151674
vn -0.15430333 0.61721332 0.77151682
vn -0.15430335 0.61721341 0.77151674
vn -0.89442719 -0.4472136 0
vn 0 -0.4472136 -0.89442719
vn -0.00046945 -0.99999989 0
vn 0 -0.99999989 -0.00046907
vn 0.89451112 -0.4470457 0
vn 0.8943852 -0.44729751 -0.00020981
vn 0 1 0
vn 0 -0.4472136 0.89442719
vn -0.00092553 -0.44610243 0.89498143
vn 0 0.16439899 0.98639392
vn 0.98639392 0.16439899 0
vn -0.98639392 0.16439899 0
vn 0 -0.75925662 -0.65079135
vn 0 -0.16439899 -0.98639392
vn 0 0.87789556 0.47885215
vn 0.8944272 -0.44721357 0
vn 0.00046945 -0.99999989 0
vn 0 -0.99999989 0.00046907
vn -0.89451108 -0.44704578 -2.1e-7
vn -0.89438529 -0.44729734 0.00020939
vn 0.00092553 -0.44610243 -0.89498143
vn 0 0.16439899 -0.98639392
vn -0.98639395 0.16439885 8.2e-7
vn -0.98639396 0.16439876 9.4e-7
vn 0.98639391 0.16439905 -3.8e-7
vn 0 -0.75925658 0.6507914
vn 0 -0.16439899 0.98639392
vn 0.98639386 0.16439936 -3.8e-7
vn -0.98639412 0.16439782 8.2e-7
vn 0 0.87789558 -0.47885211
g Scene
usemtl 1
f 1/1/1 2/2/1 3/3/1
f 1/1/2 4/4/2 2/2/2
f 5/5/3 6/6/3 7/7/3
f 5/5/3 8/8/3 6/6/3
f 9/9/4 10/8/4 8/5/4
f 9/9/4 11/10/4 10/8/4
f 10/5/5 12/6/5 13/7/5
f 10/5/5 14/8/5 12/6/5
f 15/9/6 5/8/6 14/5/6
f 15/9/6 16/10/6 5/8/6
f 1/11/7 15/10/7 11/9/7
f 1/11/8 3/12/8 15/10/8
f 14/5/9 7/6/9 12/7/9
f 14/5/9 5/8/9 7/6/9
f 8/5/10 13/6/10 6/7/10
f 8/5/10 10/8/10 13/6/10
f 2/11/11 9/10/11 16/9/11
f 2/11/12 4/12/12 9/10/12
f 4/11/13 11/10/13 9/9/13
f 4/11/14 1/12/14 11/10/14
f 11/9/15 14/8/15 10/5/15
f 11/9/15 15/10/15 14/8/15
f 3/11/16 16/10/16 15/9/16
f 3/11/17 2/12/17 16/10/17
f 16/9/18 8/8/18 5/5/18
f 16/9/18 9/10/18 8/8/18
f 17/13/19 18/14/19 19/15/19
f 17/13/20 20/16/20 18/14/20
f 21/17/21 22/18/21 23/19/21
f 21/17/22 24/9/22 22/18/22
f 25/20/23 23/21/23 22/22/23
f 25/20/24 26/23/24 23/21/24
f 19/24/25 27/23/25 28/25/25
f 19/24/26 18/26/26 27/23/26
f 28/25/27 27/23/27 24/27/27
f 27/23/28 22/20/28 24/27/28
f 18/23/29 20/26/29 25/21/29
f 20/26/30 26/28/30 25/21/30
f 20/29/31 17/13/31 29/30/31
f 17/13/32 30/15/32 29/30/32
f 17/29/33 31/15/33 30/30/33
f 17/29/34 19/13/34 31/15/34
f 21/31/35 32/18/35 33/32/35
f 21/31/36 23/19/36 32/18/36
f 24/31/37 21/19/37 34/32/37
f 21/19/38 33/18/38 34/32/38
f 35/14/39 30/33/39 36/28/39
f 35/14/40 29/16/40 30/33/40
f 32/9/41 35/17/41 33/7/41
f 35/17/42 36/22/42 33/7/42
f 23/9/43 26/17/43 32/34/43
f 26/17/44 35/35/44 32/34/44
f 26/14/45 29/36/45 35/37/45
f 26/14/46 20/16/46 29/36/46
f 19/24/47 28/25/47 31/38/47
f 28/25/48 37/39/48 31/38/48
f 37/31/49 34/32/49 36/40/49
f 34/32/50 33/41/50 36/40/50
f 28/25/51 34/42/51 37/39/51
f 28/25/52 24/27/52 34/42/52
f 31/29/53 36/43/53 30/44/53
f 31/29/54 37/30/54 36/43/54
f 38/45/55 39/46/55 40/47/55
f 39/46/56 41/48/56 40/47/56
f 40/47/57 42/46/57 38/45/57
f 40/47/58 41/48/58 42/46/58
f 43/45/59 44/46/59 45/47/59
f 44/46/60 46/48/60 45/47/60
f 45/47/61 46/48/61 47/46/61
f 45/47/62 47/46/62 43/45/62
f 48/49/63 49/22/63 50/7/63
f 48/49/63 51/50/63 49/22/63
f 51/50/64 52/21/64 49/22/64
f 49/50/65 52/21/65 53/22/65
f 50/49/66 53/22/66 54/7/66
f 50/49/66 49/50/66 53/22/66
f 55/50/67 52/21/67 51/22/67
f 56/49/68 51/22/68 48/7/68
f 56/49/68 55/50/68 51/22/68
f 52/51/69 55/2/69 53/4/69
f 53/51/69 56/2/69 54/4/69
f 53/51/69 55/52/69 56/2/69
f 57/49/69 58/22/69 59/7/69
f 57/49/69 60/50/69 58/22/69
f 60/50/70 61/21/70 58/22/70
f 58/50/71 61/21/71 62/22/71
f 59/49/72 62/22/72 63/7/72
f 59/49/72 58/50/72 62/22/72
f 64/50/73 61/21/73 60/22/73
f 65/49/74 60/22/74 57/7/74
f 65/49/74 64/50/74 60/22/74
f 61/51/63 64/2/63 62/4/63
f 62/51/63 65/2/63 63/4/63
f 62/51/63 64/52/63 65/2/63
f 66/34/75 67/53/75 68/7/75
f 66/34/76 69/4/76 67/53/76
f 69/34/77 68/53/77 67/7/77
f 69/34/78 66/4/78 68/53/78
f 70/34/77 71/53/77 72/7/77
f 70/34/79 73/4/79 71/53/79
f 73/34/75 72/53/75 71/7/75
f 73/34/76 70/4/76 72/53/76
f 74/34/80 75/53/80 76/7/80
f 74/34/80 77/4/80 75/53/80
f 78/34/81 76/53/81 79/7/81
f 78/34/81 74/4/81 76/53/81
f 74/34/82 80/53/82 77/7/82
f 74/34/83 78/4/83 80/53/83
f 80/34/84 79/53/84 81/7/84
f 80/34/85 78/4/85 79/53/85
f 75/34/86 79/53/86 76/7/86
f 75/34/86 81/4/86 79/53/86
f 77/34/87 81/53/87 75/7/87
f 77/34/88 80/4/88 81/53/88
f 82/50/89 83/53/89 84/2/89
f 82/50/89 85/22/89 83/53/89
f 85/50/90 86/53/90 83/2/90
f 85/50/90 87/22/90 86/53/90
f 88/50/91 84/53/91 89/2/91
f 88/50/91 82/22/91 84/53/91
f 86/2/92 89/53/92 90/7/92
f 87/50/93 89/53/93 86/2/93
f 87/50/93 88/22/93 89/53/93
f 89/2/91 84/53/91 90/7/91
f 83/2/90 86/53/90 90/7/90
f 84/2/94 83/53/94 90/7/94
f 91/34/95 92/53/95 93/7/95
f 91/34/95 94/4/95 92/53/95
f 95/34/87 93/53/87 96/7/87
f 95/34/87 91/4/87 93/53/87
f 91/34/96 97/53/96 94/7/96
f 91/34/97 95/4/97 97/53/97
f 97/34/98 96/53/98 98/7/98
f 97/34/99 95/4/99 96/53/99
f 92/34/86 96/53/86 93/7/86
f 92/34/86 98/4/86 96/53/86
f 94/34/81 98/53/81 92/7/81
f 94/34/100 97/4/100 98/53/100
f 99/50/101 100/53/101 101/2/101
f 99/50/101 102/22/101 100/53/101
f 102/50/102 103/53/102 100/2/102
f 102/50/103 104/22/103 103/53/103
f 105/50/104 101/53/104 106/2/104
f 105/50/104 99/22/104 101/53/104
f 103/2/105 106/53/105 107/7/105
f 104/50/106 106/53/106 103/2/106
f 104/50/106 105/22/106 106/53/106
f 106/2/107 101/53/107 107/7/107
f 100/2/108 103/53/108 107/7/108
f 101/2/109 100/53/109 107/7/109
